<svg xmlns="http://www.w3.org/2000/svg" viewBox="0 0 230.7 230.7"><path fill="none" d="M-38.5-374.9h713.2v552.6H-38.5z"/><g transform="translate(-822.7 88.6)"><rect width="230.7" height="230.7" x="822.7" y="-88.6" fill="#03151f" fill-rule="evenodd" ry="34.4"/><path fill="#fff" d="M884.3-66c-8.7 1-17.6.4-26.3 2.2-9.6-1-12.6 11.8-2.4 12.8 8.4-1.2 19.2 2 28.8.1 8.3-1 16.3 4.4 23 5.1 7.6 1.7 15.5.6 23 3.8 7.6 1.8 14.2 6.3 22.1 8 5 1.5 5.5 6.3-.2 2.3 3.6 5.2 16.6 9.6 15.6 19.4 1.7 7.2-7.8 1.5-3.6 8-2.1 8.7-8.9 16-15.3 22-8.4 3.4-19.7 8.4-28 2.5a107.6 107.6 0 0 1-15.4-25.4c-3.8-5.5-.9-19-10.4-16.3-1.6 5.7 6.8 13.5-2.5 13.2-8.8 5.3 7.7 14.4-2.2 17.1 1.2 7.5 10 14 15 20 5.6 6.7 11.3 13.7 17.6 18.8 2.5 4.1-.3 3.7-2.7 1.8.5 10.1 12 11.8 17.7 18.3 8.7 4 15.8 10.8 23 16.9 9 8.3 20.9 12.6 29.8 21 8.1 7.2 18.2 13.3 29.5 12.7 7 3 15.9-4.9 5.6-8.3-2.7-3.3-1.7-5.4-6-6 1.2-4.9 12 4.4 10.2-3.2-5.7-5-18.6-3.2-19.7-12-3.5-4.7-2.1-2.3-1.4 1.3-6 3.1-5.4-7.7-11.5-5-5.7-.7-9-4-9.8-8.8-2 8-11.4-3.8-16-6.8-11.2-4.8-19.5-14-28.6-21.7 3.2-3.4-10.6-9.7.3-10.3 9.4-3 19.5-5 26.7-12.2 8.2-5.2 11.7-13.8 14.2-22.6 5.8-9.3 3.6-20.6-3.2-28.7a37.6 37.6 0 0 0-25.7-21.2c-12.3-2.8-23.9-8.3-36.1-11-4.6-.7-14.9-4.4-22-4.9-4.3-1.2-8.6-2.6-13-3zM873 39.6c-9.7 3.3-.7 16.3-8.4 21.4a74.7 74.7 0 0 0 0 30.5c-3.3 11 5.5 18.1 14.4 21 9.6 3.2 5.5-12 7.6-17.9a197 197 0 0 0 1.2-31.2c.7-7.9 0-16.5-9.9-16-1.3-2.8-.6-7.4-5-7.8z"/></g></svg>